External Loads File
version=1
nRows=62
nColumns=13
Range=5.000000e-03-10 seconds
endheader
time 	forceRightX 	forceRightY 	forceRightZ 	pointRightX 	pointRightY 	pointRightZ 	forceLeftX 	forceLeftY 	forceLeftZ 	pointLeftX 	pointLeftY 	pointLeftZ 		
5.005000 -223.574551 683.518518 -0.000000 0.393506 0.390159 -0.166778 48.331846 -33.574075 -0.000000 0.116394 0.243378 -0.410990
5.010000 -237.104994 701.634896 -0.000000 0.396639 0.379693 -0.166503 48.276623 -27.900452 -0.000000 0.114117 0.253380 -0.410870
5.015000 -246.339757 711.279007 -0.000000 0.399380 0.368795 -0.166271 49.305190 -21.732649 -0.000000 0.112339 0.263427 -0.410749
5.020000 -252.407073 713.427200 -0.000000 0.401761 0.357957 -0.166200 51.566191 -15.412687 -0.000000 0.110972 0.273512 -0.410775
5.025000 -254.279203 710.152875 -0.000000 0.403792 0.346946 -0.166206 55.026146 -9.443799 -0.000000 0.110159 0.284017 -0.410921
5.030000 -253.493715 702.692231 -0.000000 0.405366 0.335849 -0.166191 59.539458 -4.101508 -0.000000 0.109792 0.294476 -0.411098
5.035000 -250.165030 692.611688 -0.000000 0.406297 0.324722 -0.166124 64.823011 0.328906 -0.000000 0.109942 0.305001 -0.411276
5.040000 -244.495474 681.204728 -0.000000 0.406622 0.313660 -0.166006 70.542278 3.683428 -0.000000 0.110628 0.315631 -0.411466
5.045000 -236.619027 669.592739 -0.000000 0.406305 0.302686 -0.165786 76.308384 5.897697 -0.000000 0.111860 0.326384 -0.411623
5.050000 -227.254364 658.546026 -0.000000 0.405240 0.291781 -0.165585 81.707710 7.043823 -0.000000 0.113641 0.336921 -0.411797
5.055000 -213.607316 649.865059 -0.000000 0.403264 0.280505 -0.165624 86.382128 6.773612 -0.000000 0.116067 0.347894 -0.411991
5.060000 -200.786792 642.467300 -0.000000 0.400736 0.269959 -0.165475 89.911808 5.770017 -0.000000 0.119078 0.358000 -0.411945
5.065000 -185.187382 637.916690 -0.000000 0.397414 0.259773 -0.165146 92.017576 3.591570 -0.000000 0.122637 0.368263 -0.411999
5.070000 -166.410657 636.341656 -0.000000 0.393379 0.249623 -0.164647 92.485609 0.189803 -0.000000 0.126886 0.378412 -0.411924
5.075000 -144.751808 637.365409 -0.000000 0.388531 0.239713 -0.164724 91.213368 -4.395784 -0.000000 0.131713 0.388403 -0.412410
5.080000 -121.137476 640.250413 -0.000000 0.383095 0.230134 -0.164185 88.184063 -10.042533 -0.000000 0.137043 0.397949 -0.411771
5.085000 -95.114328 644.374817 -0.000000 0.376980 0.220952 -0.163689 83.441231 -16.838709 -0.000000 0.142986 0.407222 -0.411516
5.090000 -66.243297 648.871792 -0.000000 0.370221 0.212154 -0.163087 77.070658 -24.891685 -0.000000 0.150042 0.416140 -0.411404
5.095000 -36.309907 652.553793 -0.000000 0.362871 0.203551 -0.162565 69.242428 -34.061953 -0.000000 0.156996 0.424809 -0.411342
5.100000 -6.556791 654.510405 -0.000000 0.355091 0.195672 -0.162211 60.135235 -44.297860 -0.000000 0.164426 0.432888 -0.410908
5.105000 23.541172 654.022205 -0.000000 0.346941 0.188349 -0.161810 49.825629 -55.658993 -0.000000 0.172662 0.440547 -0.411018
5.110000 52.172265 650.578602 -0.000000 0.338328 0.181796 -0.161655 38.560914 -67.911527 -0.000000 0.181147 0.447651 -0.410872
5.115000 79.173381 643.948442 -0.000000 0.329478 0.175711 -0.161654 26.465420 -80.865664 -0.000000 0.190071 0.454230 -0.410662
5.120000 103.981500 634.160609 -0.000000 0.320461 0.170183 -0.161738 13.718627 -94.176563 -0.000000 0.199376 0.460394 -0.410416
5.125000 125.602606 621.565702 -0.000000 0.311201 0.165274 -0.161793 0.657407 -107.389731 -0.000000 0.208620 0.465809 -0.410473
5.130000 145.336519 606.196578 -0.000000 0.301688 0.161172 -0.161792 -12.691336 -119.936615 -0.000000 0.218404 0.470457 -0.410379
5.135000 162.970488 588.314533 -0.000000 0.291817 0.157543 -0.162013 -26.014552 -131.104421 -0.000000 0.228171 0.474589 -0.410538
5.140000 178.891650 567.979808 -0.000000 0.281704 0.154631 -0.161729 -39.008100 -140.196849 -0.000000 0.238184 0.477984 -0.410654
5.145000 192.312674 545.570474 -0.000000 0.271647 0.152169 -0.161624 -50.985789 -146.711403 -0.000000 0.248088 0.480594 -0.410826
5.150000 204.203717 520.856138 -0.000000 0.261261 0.150308 -0.161485 -61.676467 -150.116585 -0.000000 0.257925 0.482558 -0.410654
5.155000 214.476512 493.801715 -0.000000 0.250895 0.149347 -0.161349 -70.665873 -150.017104 -0.000000 0.267880 0.483880 -0.410679
5.160000 222.626300 464.450176 -0.000000 0.240507 0.148938 -0.161144 -77.637583 -146.149772 -0.000000 0.277552 0.484136 -0.410858
5.165000 228.033357 432.952047 -0.000000 0.230273 0.149049 -0.161096 -82.488690 -138.280822 -0.000000 0.286851 0.483981 -0.411175
5.170000 230.712093 399.279694 -0.000000 0.220393 0.150240 -0.161266 -85.542598 -125.996759 -0.000000 0.295990 0.483195 -0.411346
5.175000 229.988684 363.973375 -0.000000 0.210844 0.151839 -0.161280 -87.096971 -108.986627 -0.000000 0.304515 0.481730 -0.411435
5.180000 226.280357 327.168153 -0.000000 0.201773 0.153910 -0.161287 -87.927175 -86.717449 -0.000000 0.312854 0.479544 -0.412173
5.185000 219.409459 289.620482 -0.000000 0.193135 0.156779 -0.161414 -88.700738 -58.822747 -0.000000 0.320445 0.476821 -0.412575
5.190000 210.042221 251.760025 -0.000000 0.184994 0.160151 -0.161488 -90.309749 -24.785327 -0.000000 0.327590 0.473448 -0.413015
5.195000 198.753408 214.218322 -0.000000 0.177206 0.164037 -0.161498 -93.485672 15.751608 -0.000000 0.334101 0.469349 -0.413464
5.200000 186.008740 177.806076 -0.000000 0.170007 0.168468 -0.161532 -98.822831 62.798146 -0.000000 0.339926 0.464651 -0.413957
5.205000 172.731844 142.824347 -0.000000 0.163171 0.173556 -0.161492 -106.631380 116.134859 -0.000000 0.345419 0.459381 -0.414585
5.210000 159.267222 109.993760 -0.000000 0.156573 0.179136 -0.161378 -117.177732 174.668305 -0.000000 0.350355 0.453771 -0.415162
5.215000 146.154820 79.548913 -0.000000 0.150361 0.185346 -0.161487 -130.187747 236.979209 -0.000000 0.355106 0.447251 -0.415717
5.220000 133.425986 52.220403 -0.000000 0.144750 0.191956 -0.161468 -145.782295 300.805035 -0.000000 0.359678 0.440281 -0.416187
5.225000 121.301059 28.119583 -0.000000 0.139125 0.199099 -0.162054 -162.813234 364.206735 -0.000000 0.364314 0.432693 -0.416283
5.230000 109.736439 7.905048 -0.000000 0.134363 0.206717 -0.161944 -181.452077 424.534574 -0.000000 0.368754 0.424579 -0.416402
5.235000 98.923165 -8.384259 -0.000000 0.130036 0.214589 -0.161780 -200.705306 479.893183 -0.000000 0.372991 0.415884 -0.416603
5.240000 89.033871 -20.897755 -0.000000 0.126102 0.223065 -0.161796 -219.055943 528.956688 -0.000000 0.377233 0.406771 -0.416506
5.245000 80.264402 -29.715804 -0.000000 0.122516 0.231976 -0.161936 -236.162642 570.399604 -0.000000 0.381156 0.397452 -0.416312
5.250000 72.803536 -35.126407 -0.000000 0.119373 0.241053 -0.162054 -251.709971 603.511762 -0.000000 0.384570 0.387783 -0.416476
5.255000 66.748657 -37.615151 -0.000000 0.116679 0.250330 -0.162321 -264.744684 628.551552 -0.000000 0.387944 0.377752 -0.416219
5.260000 62.188932 -37.645446 -0.000000 0.114515 0.259990 -0.162348 -275.323338 646.054931 -0.000000 0.390797 0.367419 -0.416222
5.265000 59.176221 -35.708866 -0.000000 0.112814 0.269813 -0.162428 -284.264392 656.820674 -0.000000 0.393177 0.357046 -0.416204
5.270000 57.607722 -32.409597 -0.000000 0.111537 0.279860 -0.162523 -291.320265 662.484164 -0.000000 0.395097 0.346573 -0.416109
5.275000 57.303090 -28.283393 -0.000000 0.110801 0.290114 -0.162656 -296.145151 664.866253 -0.000000 0.396565 0.335874 -0.416033
5.280000 58.037563 -23.745534 -0.000000 0.110504 0.300663 -0.162816 -298.627569 665.565945 -0.000000 0.397514 0.325149 -0.415979
5.285000 59.527640 -19.141105 -0.000000 0.110773 0.311271 -0.163045 -298.285712 666.005295 -0.000000 0.397834 0.314171 -0.416079
5.290000 61.452551 -14.763164 -0.000000 0.111597 0.322090 -0.163215 -294.323181 667.311985 -0.000000 0.397555 0.303047 -0.416158
5.295000 63.536490 -10.616584 -0.000000 0.112908 0.332832 -0.163534 -288.361343 669.157542 -0.000000 0.396623 0.292461 -0.416098
5.300000 65.476429 -6.951788 -0.000000 0.114785 0.343494 -0.163849 -278.728815 672.370956 -0.000000 0.394946 0.281905 -0.416129
5.305000 67.094701 -3.903556 -0.000000 0.117381 0.354086 -0.164133 -264.953544 677.020930 -0.000000 0.392660 0.271327 -0.416152
5.310000 68.276273 -1.545185 -0.000000 0.120479 0.364545 -0.164489 -247.682887 682.617630 -0.000000 0.389767 0.260924 -0.416139
